HIERARCHY
ROOT Hips
{
  OFFSET -69.4423 88.0299 51.6846
  CHANNELS 6 Xposition Yposition Zposition Zrotation Xrotation Yrotation
  JOINT Spine
  {
    OFFSET 12.0259 -0.162853 1.93176e-005
    CHANNELS 3 Zrotation Xrotation Yrotation
    JOINT Spine1
    {
      OFFSET 15.3169 -0.0121909 0
      CHANNELS 3 Zrotation Xrotation Yrotation
      JOINT Spine2
      {
        OFFSET 15.3176 -0.0121922 0
        CHANNELS 3 Zrotation Xrotation Yrotation
        JOINT Neck
        {
          OFFSET 19.9142 1.56236 0
          CHANNELS 3 Zrotation Xrotation Yrotation
          JOINT Head
          {
            OFFSET 6.92646 0 0
            CHANNELS 3 Zrotation Xrotation Yrotation
            End Site
            {
              OFFSET 20.7666 0 0
            }
          }
          JOINT LeftShoulder
          {
            OFFSET -4.94072 -1.14703 8.14416
            CHANNELS 3 Zrotation Xrotation Yrotation
            JOINT LeftArm
            {
              OFFSET 14.108 0 -2.74767e-005
              CHANNELS 3 Zrotation Xrotation Yrotation
              JOINT LeftForeArm
              {
                OFFSET 28.5802 -0.0783412 -0.0284884
                CHANNELS 3 Zrotation Xrotation Yrotation
                JOINT LeftHand
                {
                  OFFSET 27.092 0 0
                  CHANNELS 3 Zrotation Xrotation Yrotation
                  End Site
                  {
                    OFFSET 9.55928 -0.186424 0.145352
                  }
                }
              }
            }
          }
          JOINT RightShoulder
          {
            OFFSET -7.15748 -1.33027 -6.24935
            CHANNELS 3 Zrotation Xrotation Yrotation
            JOINT RightArm
            {
              OFFSET 14.108 0 1.82997e-005
              CHANNELS 3 Zrotation Xrotation Yrotation
              JOINT RightForeArm
              {
                OFFSET 28.5802 -0.0707221 2.30684e-005
                CHANNELS 3 Zrotation Xrotation Yrotation
                JOINT RightHand
                {
                  OFFSET 27.092 0 -1.30073e-005
                  CHANNELS 3 Zrotation Xrotation Yrotation
                  End Site
                  {
                    OFFSET 9.55929 -0.186417 -0.145354
                  }
                }
              }
            }
          }
        }
      }
    }
  }
  JOINT LeftUpLeg
  {
    OFFSET 0.00499725 -0.534999 8.837
    CHANNELS 3 Zrotation Xrotation Yrotation
    JOINT LeftLeg
    {
      OFFSET 39.9035 -0.00124594 0.000252775
      CHANNELS 3 Zrotation Xrotation Yrotation
      JOINT LeftFoot
      {
        OFFSET 39.6689 0 0
        CHANNELS 3 Zrotation Xrotation Yrotation
        JOINT LeftToe
        {
          OFFSET 10.1624 13.6296 0
          CHANNELS 3 Zrotation Xrotation Yrotation
          End Site
          {
            OFFSET 8.38147 0 0
          }
        }
      }
    }
  }
  JOINT RightUpLeg
  {
    OFFSET 0.00499725 -0.535 -8.837
    CHANNELS 3 Zrotation Xrotation Yrotation
    JOINT RightLeg
    {
      OFFSET 39.9036 -0.000268477 0.000106433
      CHANNELS 3 Zrotation Xrotation Yrotation
      JOINT RightFoot
      {
        OFFSET 39.6689 1.17892e-005 0
        CHANNELS 3 Zrotation Xrotation Yrotation
        JOINT RightToe
        {
          OFFSET 10.1624 13.6296 0
          CHANNELS 3 Zrotation Xrotation Yrotation
          End Site
          {
            OFFSET 8.38147 0 0
          }
        }
      }
    }
  }
}
MOTION
Frames:	6
Frame Time:	0.0333333
-37.3824 90.9984 56.9459 87.9174 -32.6228 1.73996 0.960339 -3.49698 0.662832 1.96674 -6.98154 1.38842 1.96674 -6.98156 1.38842 4.98601 -18.1404 -13.1675 70.0764 -22.4556 49.2919 169.799 -15.2748 -99.3764 -22.2392 -2.84895 82.3579 -23.7145 2.63778 -15.4925 21.4286 -86.9665 23.9067 169.259 -17.9132 68.7406 -8.77757 -12.2222 -86.6099 -22.002 -2.60603 13.8875 1.45882 78.1238 -1.45954 1.4021 2.46435 -175.16 -36.2081 1.01129 -0.09369 -23.2646 9.68894 3.51433 90 -6.36111e-015 -1.59028e-014 -15.8545 -10.9581 -174.368 -30.8248 -0.247998 0.127249 -12.0547 12.0132 4.73249 90 -2.54444e-014 -1.90833e-014 
-35.5965 90.6327 59.3949 88.3153 -29.9207 2.10983 0.884745 -3.69775 0.723547 1.82204 -7.38306 1.50923 1.82203 -7.38307 1.50922 5.04237 -18.1313 -13.2427 69.9081 -22.2363 49.0867 169.752 -15.1575 -99.4933 -24.3904 -3.82886 82.2211 -24.3186 2.74299 -15.8796 16.4297 -86.3848 18.7835 169.177 -17.8956 68.6521 -8.57207 -12.555 -86.2043 -21.0975 -2.42216 13.4046 1.72216 78.893 -1.70487 5.39438 1.2469 -176.611 -28.1804 1.06871 -0.352444 -16.898 6.14778 1.37556 90 -3.18055e-015 -3.18055e-015 -18.6465 -11.2026 -175.793 -31.3576 -0.173381 0.185181 -12.2325 13.1926 5.09017 90 -9.54166e-015 -1.27222e-014 
-33.5915 90.0503 62.091 89.11 -26.6636 3.008 0.741517 -3.97994 0.847528 1.54776 -7.94765 1.75328 1.54775 -7.94763 1.75326 4.61535 -18.1902 -13.3101 69.5275 -22.8878 47.8865 170.169 -15.2106 -99.4876 -26.5654 -5.15119 82.7234 -25.0372 2.87398 -16.3381 13.9781 -86.0138 16.3239 169.565 -18.0399 68.6956 -7.14251 -12.8433 -85.2235 -21.4664 -2.50627 13.6031 1.68456 78.9565 -1.66998 8.12729 -2.1473 -177.867 -21.9146 1.08684 -0.657909 -10.7107 2.91783 0.180074 90 1.27222e-014 -1.27222e-014 -21.8776 -10.9169 -177.924 -32.2038 -0.126561 0.249357 -11.6119 12.9067 4.78511 90 1.59028e-014 9.54166e-015 
-31.4426 89.4223 64.6531 89.9959 -23.6397 4.70754 0.532918 -4.2184 0.569595 1.11257 -8.43064 1.18362 1.11256 -8.43067 1.1836 4.72291 -18.1401 -12.7949 69.4543 -22.5639 47.8832 170.215 -15.1729 -99.045 -29.0499 -5.39114 81.9497 -25.76 2.98712 -16.7293 11.7599 -85.8412 14.0161 169.595 -18.073 69.2468 -5.15296 -12.8268 -85.5009 -22.2582 -2.68206 14.0266 1.65443 78.7644 -1.6394 8.44538 -2.06221 -178.918 -16.8366 1.11065 -0.881261 -5.80061 4.01478 0.436435 90 1.27222e-014 9.54166e-015 -25.1209 -8.38843 179.206 -33.1084 -0.112413 0.343927 -9.53634 12.7161 4.16602 90 -7.95139e-015 -1.27222e-014 
-29.1549 88.8219 66.9718 90.6348 -20.3401 6.63197 0.242246 -4.32644 0.0538346 0.490707 -8.65224 0.126796 0.490708 -8.65222 0.12678 5.29054 -17.9717 -11.8877 69.9891 -21.7668 48.3648 169.886 -15.0304 -98.3169 -32.299 -4.31647 80.9808 -26.4906 3.08146 -17.0739 12.0747 -86.8711 14.3479 169.296 -17.9562 70.0902 -2.36756 -12.6613 -86.3977 -22.0462 -2.6479 13.9184 1.92372 79.2578 -1.87463 6.7203 0.225723 179.986 -14.7381 1.13939 -0.899767 -3.23289 8.97259 1.08978 90 1.59028e-015 -6.36111e-015 -27.9484 -5.27778 176.059 -35.2897 -0.129985 0.397231 -5.63528 10.8969 2.7276 90 1.59028e-014 1.59028e-014 
-26.9628 88.4265 68.9978 90.2087 -17.1002 6.96246 0.45666 -4.67407 0.0463957 0.921787 -9.34721 0.131139 0.921775 -9.3472 0.131126 3.70785 -17.3507 -12.0814 70.2097 -20.5867 47.2694 171.613 -14.728 -97.9482 -33.1472 -5.42071 79.9404 -26.3734 3.06646 -17.0361 12.3348 -86.2066 14.5241 171.027 -17.7706 70.4187 0.254761 -10.5833 -85.9513 -21.6933 -2.58487 13.7174 2.11806 79.6579 -2.0686 4.28971 0.734079 179.427 -16.0966 1.1311 -0.865361 -0.887807 10.9897 1.08073 90 3.18055e-015 3.18055e-015 -28.3865 -2.99415 174.176 -38.3188 -0.185338 0.388339 -1.14406 7.94508 1.17124 90 3.18055e-015 -3.18055e-015 
